<mxfile host="app.diagrams.net" modified="2023-05-26T22:31:33.076Z" agent="Mozilla/5.0 (Windows NT 10.0; Win64; x64) AppleWebKit/537.36 (KHTML, like Gecko) Chrome/113.0.0.0 Safari/537.36" etag="xSk64bdVP60fNKd_NBBg" version="21.3.4" type="github">
  <diagram id="C5RBs43oDa-KdzZeNtuy" name="Page-1">
    <mxGraphModel dx="868" dy="739" grid="1" gridSize="10" guides="1" tooltips="1" connect="1" arrows="1" fold="1" page="1" pageScale="1" pageWidth="827" pageHeight="1169" math="0" shadow="0">
      <root>
        <mxCell id="WIyWlLk6GJQsqaUBKTNV-0" />
        <mxCell id="WIyWlLk6GJQsqaUBKTNV-1" parent="WIyWlLk6GJQsqaUBKTNV-0" />
        <mxCell id="1gJPdEI6X4SfCQnjHYrI-3" value="&lt;span style=&quot;font-weight: normal;&quot;&gt;&lt;font color=&quot;#203850&quot;&gt;Staff&lt;/font&gt;&lt;/span&gt;" style="swimlane;horizontal=0;whiteSpace=wrap;html=1;strokeColor=#E66418;" vertex="1" parent="WIyWlLk6GJQsqaUBKTNV-1">
          <mxGeometry x="34" y="20" width="780" height="100" as="geometry">
            <mxRectangle x="100" y="10" width="40" height="150" as="alternateBounds" />
          </mxGeometry>
        </mxCell>
        <mxCell id="1gJPdEI6X4SfCQnjHYrI-4" value="&lt;font color=&quot;#203850&quot;&gt;Create Conference&lt;/font&gt;" style="rounded=0;whiteSpace=wrap;html=1;fillColor=#d5e8d4;strokeColor=#82b366;" vertex="1" parent="1gJPdEI6X4SfCQnjHYrI-3">
          <mxGeometry x="46" y="20" width="120" height="60" as="geometry" />
        </mxCell>
        <mxCell id="1gJPdEI6X4SfCQnjHYrI-5" value="&lt;font color=&quot;#203850&quot;&gt;&lt;span style=&quot;font-weight: 400;&quot;&gt;PC Chair&lt;br&gt;&lt;/span&gt;&lt;/font&gt;" style="swimlane;horizontal=0;whiteSpace=wrap;html=1;strokeColor=#E66418;" vertex="1" parent="WIyWlLk6GJQsqaUBKTNV-1">
          <mxGeometry x="34" y="120" width="780" height="110" as="geometry">
            <mxRectangle x="100" y="10" width="40" height="150" as="alternateBounds" />
          </mxGeometry>
        </mxCell>
        <mxCell id="1gJPdEI6X4SfCQnjHYrI-6" value="&lt;font color=&quot;#203850&quot;&gt;Configure Settings&lt;/font&gt;" style="rounded=0;whiteSpace=wrap;html=1;fillColor=#d5e8d4;strokeColor=#82b366;" vertex="1" parent="1gJPdEI6X4SfCQnjHYrI-5">
          <mxGeometry x="46" y="40" width="120" height="60" as="geometry" />
        </mxCell>
        <mxCell id="1gJPdEI6X4SfCQnjHYrI-8" style="edgeStyle=orthogonalEdgeStyle;rounded=0;orthogonalLoop=1;jettySize=auto;html=1;entryX=0.5;entryY=0;entryDx=0;entryDy=0;fillColor=#d5e8d4;strokeColor=#82b366;" edge="1" parent="WIyWlLk6GJQsqaUBKTNV-1" source="1gJPdEI6X4SfCQnjHYrI-4" target="1gJPdEI6X4SfCQnjHYrI-6">
          <mxGeometry relative="1" as="geometry" />
        </mxCell>
        <mxCell id="1gJPdEI6X4SfCQnjHYrI-9" value="&lt;font color=&quot;#203850&quot;&gt;Conference&lt;/font&gt;" style="edgeLabel;html=1;align=center;verticalAlign=middle;resizable=0;points=[];" vertex="1" connectable="0" parent="1gJPdEI6X4SfCQnjHYrI-8">
          <mxGeometry x="-0.3913" y="-1" relative="1" as="geometry">
            <mxPoint x="1" y="12" as="offset" />
          </mxGeometry>
        </mxCell>
        <mxCell id="1gJPdEI6X4SfCQnjHYrI-10" value="&lt;font color=&quot;#203850&quot;&gt;&lt;span style=&quot;font-weight: 400;&quot;&gt;Author&lt;br&gt;&lt;/span&gt;&lt;/font&gt;" style="swimlane;horizontal=0;whiteSpace=wrap;html=1;strokeColor=#E66418;" vertex="1" parent="WIyWlLk6GJQsqaUBKTNV-1">
          <mxGeometry x="34" y="230" width="780" height="110" as="geometry">
            <mxRectangle x="100" y="10" width="40" height="150" as="alternateBounds" />
          </mxGeometry>
        </mxCell>
        <mxCell id="1gJPdEI6X4SfCQnjHYrI-11" value="&lt;font color=&quot;#203850&quot;&gt;Submit Paper&lt;/font&gt;" style="rounded=0;whiteSpace=wrap;html=1;fillColor=#d5e8d4;strokeColor=#82b366;" vertex="1" parent="1gJPdEI6X4SfCQnjHYrI-10">
          <mxGeometry x="46" y="40" width="120" height="60" as="geometry" />
        </mxCell>
        <mxCell id="1gJPdEI6X4SfCQnjHYrI-15" value="&lt;font color=&quot;#203850&quot;&gt;Call For Paper&lt;/font&gt;" style="edgeStyle=orthogonalEdgeStyle;rounded=0;orthogonalLoop=1;jettySize=auto;html=1;exitX=0.5;exitY=1;exitDx=0;exitDy=0;entryX=0.5;entryY=0;entryDx=0;entryDy=0;strokeColor=#82b366;" edge="1" parent="WIyWlLk6GJQsqaUBKTNV-1" source="1gJPdEI6X4SfCQnjHYrI-6" target="1gJPdEI6X4SfCQnjHYrI-11">
          <mxGeometry x="0.2" relative="1" as="geometry">
            <mxPoint as="offset" />
          </mxGeometry>
        </mxCell>
        <mxCell id="1gJPdEI6X4SfCQnjHYrI-16" value="&lt;font color=&quot;#203850&quot;&gt;&lt;span style=&quot;font-weight: 400;&quot;&gt;PC Chair&lt;br&gt;&lt;/span&gt;&lt;/font&gt;" style="swimlane;horizontal=0;whiteSpace=wrap;html=1;strokeColor=#E66418;" vertex="1" parent="WIyWlLk6GJQsqaUBKTNV-1">
          <mxGeometry x="34" y="340" width="780" height="280" as="geometry">
            <mxRectangle x="100" y="10" width="40" height="150" as="alternateBounds" />
          </mxGeometry>
        </mxCell>
        <mxCell id="1gJPdEI6X4SfCQnjHYrI-20" value="Result" style="edgeStyle=orthogonalEdgeStyle;rounded=0;orthogonalLoop=1;jettySize=auto;html=1;entryX=0;entryY=0.5;entryDx=0;entryDy=0;" edge="1" parent="1gJPdEI6X4SfCQnjHYrI-16" source="1gJPdEI6X4SfCQnjHYrI-17" target="1gJPdEI6X4SfCQnjHYrI-19">
          <mxGeometry x="0.0769" relative="1" as="geometry">
            <mxPoint as="offset" />
          </mxGeometry>
        </mxCell>
        <mxCell id="1gJPdEI6X4SfCQnjHYrI-17" value="&lt;font color=&quot;#203850&quot;&gt;Check Submission&lt;/font&gt;" style="rounded=0;whiteSpace=wrap;html=1;fillColor=#d5e8d4;strokeColor=#82b366;" vertex="1" parent="1gJPdEI6X4SfCQnjHYrI-16">
          <mxGeometry x="46" y="40" width="120" height="60" as="geometry" />
        </mxCell>
        <mxCell id="1gJPdEI6X4SfCQnjHYrI-29" value="No" style="edgeStyle=orthogonalEdgeStyle;rounded=0;orthogonalLoop=1;jettySize=auto;html=1;entryX=0;entryY=0.5;entryDx=0;entryDy=0;" edge="1" parent="1gJPdEI6X4SfCQnjHYrI-16" source="1gJPdEI6X4SfCQnjHYrI-19" target="1gJPdEI6X4SfCQnjHYrI-22">
          <mxGeometry relative="1" as="geometry" />
        </mxCell>
        <mxCell id="1gJPdEI6X4SfCQnjHYrI-31" style="edgeStyle=orthogonalEdgeStyle;rounded=0;orthogonalLoop=1;jettySize=auto;html=1;" edge="1" parent="1gJPdEI6X4SfCQnjHYrI-16" source="1gJPdEI6X4SfCQnjHYrI-19" target="1gJPdEI6X4SfCQnjHYrI-30">
          <mxGeometry relative="1" as="geometry">
            <Array as="points">
              <mxPoint x="348" y="160" />
            </Array>
          </mxGeometry>
        </mxCell>
        <mxCell id="1gJPdEI6X4SfCQnjHYrI-32" value="Yes" style="edgeLabel;html=1;align=center;verticalAlign=middle;resizable=0;points=[];" vertex="1" connectable="0" parent="1gJPdEI6X4SfCQnjHYrI-31">
          <mxGeometry x="-0.2159" relative="1" as="geometry">
            <mxPoint x="-68" as="offset" />
          </mxGeometry>
        </mxCell>
        <mxCell id="1gJPdEI6X4SfCQnjHYrI-19" value="Submission Acceptable?" style="rhombus;whiteSpace=wrap;html=1;" vertex="1" parent="1gJPdEI6X4SfCQnjHYrI-16">
          <mxGeometry x="296" y="25" width="104" height="90" as="geometry" />
        </mxCell>
        <mxCell id="1gJPdEI6X4SfCQnjHYrI-22" value="&lt;font color=&quot;#203850&quot;&gt;Reject Submission&lt;/font&gt;" style="rounded=0;whiteSpace=wrap;html=1;fillColor=#d5e8d4;strokeColor=#82b366;" vertex="1" parent="1gJPdEI6X4SfCQnjHYrI-16">
          <mxGeometry x="516" y="40" width="120" height="60" as="geometry" />
        </mxCell>
        <mxCell id="1gJPdEI6X4SfCQnjHYrI-30" value="&lt;font color=&quot;#203850&quot;&gt;Assign Reviewer&lt;/font&gt;" style="rounded=0;whiteSpace=wrap;html=1;fillColor=#d5e8d4;strokeColor=#82b366;" vertex="1" parent="1gJPdEI6X4SfCQnjHYrI-16">
          <mxGeometry x="516" y="150" width="120" height="60" as="geometry" />
        </mxCell>
        <mxCell id="1gJPdEI6X4SfCQnjHYrI-18" value="Submission" style="edgeStyle=orthogonalEdgeStyle;rounded=0;orthogonalLoop=1;jettySize=auto;html=1;exitX=0.5;exitY=1;exitDx=0;exitDy=0;entryX=0.5;entryY=0;entryDx=0;entryDy=0;" edge="1" parent="WIyWlLk6GJQsqaUBKTNV-1" source="1gJPdEI6X4SfCQnjHYrI-11" target="1gJPdEI6X4SfCQnjHYrI-17">
          <mxGeometry x="-0.2" relative="1" as="geometry">
            <mxPoint as="offset" />
          </mxGeometry>
        </mxCell>
        <mxCell id="1gJPdEI6X4SfCQnjHYrI-38" value="Review" style="edgeStyle=orthogonalEdgeStyle;rounded=0;orthogonalLoop=1;jettySize=auto;html=1;entryX=0.5;entryY=0;entryDx=0;entryDy=0;" edge="1" parent="WIyWlLk6GJQsqaUBKTNV-1" source="1gJPdEI6X4SfCQnjHYrI-25" target="1gJPdEI6X4SfCQnjHYrI-37">
          <mxGeometry relative="1" as="geometry" />
        </mxCell>
        <mxCell id="1gJPdEI6X4SfCQnjHYrI-24" value="&lt;font color=&quot;#203850&quot;&gt;&lt;span style=&quot;font-weight: 400;&quot;&gt;Reviewer&lt;br&gt;&lt;/span&gt;&lt;/font&gt;" style="swimlane;horizontal=0;whiteSpace=wrap;html=1;strokeColor=#E66418;" vertex="1" parent="WIyWlLk6GJQsqaUBKTNV-1">
          <mxGeometry x="34" y="620" width="780" height="110" as="geometry">
            <mxRectangle x="100" y="10" width="40" height="150" as="alternateBounds" />
          </mxGeometry>
        </mxCell>
        <mxCell id="1gJPdEI6X4SfCQnjHYrI-25" value="&lt;font color=&quot;#203850&quot;&gt;Review Paper&lt;/font&gt;" style="rounded=0;whiteSpace=wrap;html=1;fillColor=#d5e8d4;strokeColor=#82b366;" vertex="1" parent="1gJPdEI6X4SfCQnjHYrI-24">
          <mxGeometry x="46" y="40" width="120" height="60" as="geometry" />
        </mxCell>
        <mxCell id="1gJPdEI6X4SfCQnjHYrI-33" style="edgeStyle=orthogonalEdgeStyle;rounded=0;orthogonalLoop=1;jettySize=auto;html=1;entryX=0.5;entryY=0;entryDx=0;entryDy=0;" edge="1" parent="WIyWlLk6GJQsqaUBKTNV-1" source="1gJPdEI6X4SfCQnjHYrI-30" target="1gJPdEI6X4SfCQnjHYrI-25">
          <mxGeometry relative="1" as="geometry" />
        </mxCell>
        <mxCell id="1gJPdEI6X4SfCQnjHYrI-35" value="Assignment" style="edgeLabel;html=1;align=center;verticalAlign=middle;resizable=0;points=[];" vertex="1" connectable="0" parent="1gJPdEI6X4SfCQnjHYrI-33">
          <mxGeometry x="-0.2267" relative="1" as="geometry">
            <mxPoint as="offset" />
          </mxGeometry>
        </mxCell>
        <mxCell id="1gJPdEI6X4SfCQnjHYrI-36" value="&lt;font color=&quot;#203850&quot;&gt;&lt;span style=&quot;font-weight: 400;&quot;&gt;PC Chair&lt;br&gt;&lt;/span&gt;&lt;/font&gt;" style="swimlane;horizontal=0;whiteSpace=wrap;html=1;strokeColor=#E66418;" vertex="1" parent="WIyWlLk6GJQsqaUBKTNV-1">
          <mxGeometry x="34" y="730" width="780" height="470" as="geometry">
            <mxRectangle x="100" y="10" width="40" height="150" as="alternateBounds" />
          </mxGeometry>
        </mxCell>
        <mxCell id="1gJPdEI6X4SfCQnjHYrI-40" value="Decision" style="edgeStyle=orthogonalEdgeStyle;rounded=0;orthogonalLoop=1;jettySize=auto;html=1;" edge="1" parent="1gJPdEI6X4SfCQnjHYrI-36" source="1gJPdEI6X4SfCQnjHYrI-37" target="1gJPdEI6X4SfCQnjHYrI-39">
          <mxGeometry relative="1" as="geometry" />
        </mxCell>
        <mxCell id="1gJPdEI6X4SfCQnjHYrI-37" value="&lt;font color=&quot;#203850&quot;&gt;Make Decision on Paper&lt;/font&gt;" style="rounded=0;whiteSpace=wrap;html=1;fillColor=#d5e8d4;strokeColor=#82b366;" vertex="1" parent="1gJPdEI6X4SfCQnjHYrI-36">
          <mxGeometry x="46" y="40" width="120" height="60" as="geometry" />
        </mxCell>
        <mxCell id="1gJPdEI6X4SfCQnjHYrI-42" value="No" style="edgeStyle=orthogonalEdgeStyle;rounded=0;orthogonalLoop=1;jettySize=auto;html=1;entryX=0;entryY=0.5;entryDx=0;entryDy=0;" edge="1" parent="1gJPdEI6X4SfCQnjHYrI-36" source="1gJPdEI6X4SfCQnjHYrI-39" target="1gJPdEI6X4SfCQnjHYrI-41">
          <mxGeometry relative="1" as="geometry" />
        </mxCell>
        <mxCell id="1gJPdEI6X4SfCQnjHYrI-45" value="Yes" style="edgeStyle=orthogonalEdgeStyle;rounded=0;orthogonalLoop=1;jettySize=auto;html=1;entryX=0.5;entryY=0;entryDx=0;entryDy=0;" edge="1" parent="1gJPdEI6X4SfCQnjHYrI-36" source="1gJPdEI6X4SfCQnjHYrI-39" target="1gJPdEI6X4SfCQnjHYrI-44">
          <mxGeometry relative="1" as="geometry" />
        </mxCell>
        <mxCell id="1gJPdEI6X4SfCQnjHYrI-39" value="Paper Acceptable?" style="rhombus;whiteSpace=wrap;html=1;" vertex="1" parent="1gJPdEI6X4SfCQnjHYrI-36">
          <mxGeometry x="356" y="30" width="100" height="80" as="geometry" />
        </mxCell>
        <mxCell id="1gJPdEI6X4SfCQnjHYrI-41" value="&lt;font color=&quot;#203850&quot;&gt;Reject Paper&lt;/font&gt;" style="rounded=0;whiteSpace=wrap;html=1;fillColor=#d5e8d4;strokeColor=#82b366;" vertex="1" parent="1gJPdEI6X4SfCQnjHYrI-36">
          <mxGeometry x="516" y="40" width="120" height="60" as="geometry" />
        </mxCell>
        <mxCell id="1gJPdEI6X4SfCQnjHYrI-47" value="No" style="edgeStyle=orthogonalEdgeStyle;rounded=0;orthogonalLoop=1;jettySize=auto;html=1;" edge="1" parent="1gJPdEI6X4SfCQnjHYrI-36" source="1gJPdEI6X4SfCQnjHYrI-44" target="1gJPdEI6X4SfCQnjHYrI-46">
          <mxGeometry relative="1" as="geometry">
            <Array as="points" />
          </mxGeometry>
        </mxCell>
        <mxCell id="1gJPdEI6X4SfCQnjHYrI-49" value="Yes" style="edgeStyle=orthogonalEdgeStyle;rounded=0;orthogonalLoop=1;jettySize=auto;html=1;entryX=0.5;entryY=0;entryDx=0;entryDy=0;" edge="1" parent="1gJPdEI6X4SfCQnjHYrI-36" source="1gJPdEI6X4SfCQnjHYrI-44" target="1gJPdEI6X4SfCQnjHYrI-48">
          <mxGeometry relative="1" as="geometry" />
        </mxCell>
        <mxCell id="1gJPdEI6X4SfCQnjHYrI-44" value="Need Revision?" style="rhombus;whiteSpace=wrap;html=1;" vertex="1" parent="1gJPdEI6X4SfCQnjHYrI-36">
          <mxGeometry x="356" y="150" width="100" height="80" as="geometry" />
        </mxCell>
        <mxCell id="1gJPdEI6X4SfCQnjHYrI-57" value="Accepted Paper" style="edgeStyle=orthogonalEdgeStyle;rounded=0;orthogonalLoop=1;jettySize=auto;html=1;entryX=0.5;entryY=0;entryDx=0;entryDy=0;" edge="1" parent="1gJPdEI6X4SfCQnjHYrI-36" source="1gJPdEI6X4SfCQnjHYrI-46" target="1gJPdEI6X4SfCQnjHYrI-56">
          <mxGeometry relative="1" as="geometry" />
        </mxCell>
        <mxCell id="1gJPdEI6X4SfCQnjHYrI-60" style="edgeStyle=orthogonalEdgeStyle;rounded=0;orthogonalLoop=1;jettySize=auto;html=1;entryX=0.6;entryY=0.033;entryDx=0;entryDy=0;entryPerimeter=0;" edge="1" parent="1gJPdEI6X4SfCQnjHYrI-36" source="1gJPdEI6X4SfCQnjHYrI-46" target="1gJPdEI6X4SfCQnjHYrI-58">
          <mxGeometry relative="1" as="geometry">
            <Array as="points">
              <mxPoint x="268" y="210" />
            </Array>
          </mxGeometry>
        </mxCell>
        <mxCell id="1gJPdEI6X4SfCQnjHYrI-61" value="Accepted Paper" style="edgeLabel;html=1;align=center;verticalAlign=middle;resizable=0;points=[];" vertex="1" connectable="0" parent="1gJPdEI6X4SfCQnjHYrI-60">
          <mxGeometry x="0.0123" y="-1" relative="1" as="geometry">
            <mxPoint as="offset" />
          </mxGeometry>
        </mxCell>
        <mxCell id="1gJPdEI6X4SfCQnjHYrI-46" value="&lt;font color=&quot;#203850&quot;&gt;Accept Paper&lt;/font&gt;" style="rounded=0;whiteSpace=wrap;html=1;fillColor=#d5e8d4;strokeColor=#82b366;" vertex="1" parent="1gJPdEI6X4SfCQnjHYrI-36">
          <mxGeometry x="46" y="160" width="120" height="60" as="geometry" />
        </mxCell>
        <mxCell id="1gJPdEI6X4SfCQnjHYrI-48" value="&lt;font color=&quot;#203850&quot;&gt;Request Revision&lt;/font&gt;" style="rounded=0;whiteSpace=wrap;html=1;fillColor=#d5e8d4;strokeColor=#82b366;" vertex="1" parent="1gJPdEI6X4SfCQnjHYrI-36">
          <mxGeometry x="346" y="270" width="120" height="60" as="geometry" />
        </mxCell>
        <mxCell id="1gJPdEI6X4SfCQnjHYrI-68" value="Notification" style="edgeStyle=orthogonalEdgeStyle;rounded=0;orthogonalLoop=1;jettySize=auto;html=1;" edge="1" parent="1gJPdEI6X4SfCQnjHYrI-36" source="1gJPdEI6X4SfCQnjHYrI-56" target="1gJPdEI6X4SfCQnjHYrI-67">
          <mxGeometry x="0.4286" relative="1" as="geometry">
            <Array as="points">
              <mxPoint x="106" y="350" />
              <mxPoint x="106" y="350" />
            </Array>
            <mxPoint as="offset" />
          </mxGeometry>
        </mxCell>
        <mxCell id="1gJPdEI6X4SfCQnjHYrI-56" value="&lt;font color=&quot;#203850&quot;&gt;Notify Acceptance and Conference Registration&lt;/font&gt;" style="rounded=0;whiteSpace=wrap;html=1;fillColor=#d5e8d4;strokeColor=#82b366;" vertex="1" parent="1gJPdEI6X4SfCQnjHYrI-36">
          <mxGeometry x="46" y="270" width="120" height="60" as="geometry" />
        </mxCell>
        <mxCell id="1gJPdEI6X4SfCQnjHYrI-63" value="Submission Request" style="edgeStyle=orthogonalEdgeStyle;rounded=0;orthogonalLoop=1;jettySize=auto;html=1;" edge="1" parent="1gJPdEI6X4SfCQnjHYrI-36" source="1gJPdEI6X4SfCQnjHYrI-58" target="1gJPdEI6X4SfCQnjHYrI-62">
          <mxGeometry x="0.4286" relative="1" as="geometry">
            <Array as="points">
              <mxPoint x="256" y="365" />
              <mxPoint x="256" y="365" />
            </Array>
            <mxPoint as="offset" />
          </mxGeometry>
        </mxCell>
        <mxCell id="1gJPdEI6X4SfCQnjHYrI-58" value="&lt;font color=&quot;#203850&quot;&gt;Request &lt;br&gt;Camera-Ready Submission&lt;/font&gt;" style="rounded=0;whiteSpace=wrap;html=1;fillColor=#d5e8d4;strokeColor=#82b366;" vertex="1" parent="1gJPdEI6X4SfCQnjHYrI-36">
          <mxGeometry x="196" y="270" width="120" height="60" as="geometry" />
        </mxCell>
        <mxCell id="1gJPdEI6X4SfCQnjHYrI-50" value="&lt;font color=&quot;#203850&quot;&gt;&lt;span style=&quot;font-weight: 400;&quot;&gt;Author&lt;br&gt;&lt;/span&gt;&lt;/font&gt;" style="swimlane;horizontal=0;whiteSpace=wrap;html=1;strokeColor=#E66418;" vertex="1" parent="1gJPdEI6X4SfCQnjHYrI-36">
          <mxGeometry y="360" width="780" height="110" as="geometry">
            <mxRectangle x="100" y="10" width="40" height="150" as="alternateBounds" />
          </mxGeometry>
        </mxCell>
        <mxCell id="1gJPdEI6X4SfCQnjHYrI-51" value="&lt;font color=&quot;#203850&quot;&gt;Submit Revision&lt;/font&gt;" style="rounded=0;whiteSpace=wrap;html=1;fillColor=#d5e8d4;strokeColor=#82b366;" vertex="1" parent="1gJPdEI6X4SfCQnjHYrI-50">
          <mxGeometry x="516" y="40" width="120" height="60" as="geometry" />
        </mxCell>
        <mxCell id="1gJPdEI6X4SfCQnjHYrI-62" value="&lt;font color=&quot;#203850&quot;&gt;Submit &lt;br&gt;Camera-Ready&lt;/font&gt;" style="rounded=0;whiteSpace=wrap;html=1;fillColor=#d5e8d4;strokeColor=#82b366;" vertex="1" parent="1gJPdEI6X4SfCQnjHYrI-50">
          <mxGeometry x="196" y="40" width="120" height="60" as="geometry" />
        </mxCell>
        <mxCell id="1gJPdEI6X4SfCQnjHYrI-67" value="&lt;font color=&quot;#203850&quot;&gt;Register for Conference&lt;/font&gt;" style="rounded=0;whiteSpace=wrap;html=1;fillColor=#d5e8d4;strokeColor=#82b366;" vertex="1" parent="1gJPdEI6X4SfCQnjHYrI-50">
          <mxGeometry x="46" y="40" width="120" height="60" as="geometry" />
        </mxCell>
        <mxCell id="1gJPdEI6X4SfCQnjHYrI-52" style="edgeStyle=orthogonalEdgeStyle;rounded=0;orthogonalLoop=1;jettySize=auto;html=1;" edge="1" parent="1gJPdEI6X4SfCQnjHYrI-36" source="1gJPdEI6X4SfCQnjHYrI-48" target="1gJPdEI6X4SfCQnjHYrI-51">
          <mxGeometry relative="1" as="geometry" />
        </mxCell>
        <mxCell id="1gJPdEI6X4SfCQnjHYrI-53" value="Revision Request" style="edgeLabel;html=1;align=center;verticalAlign=middle;resizable=0;points=[];" vertex="1" connectable="0" parent="1gJPdEI6X4SfCQnjHYrI-52">
          <mxGeometry x="-0.219" y="-2" relative="1" as="geometry">
            <mxPoint as="offset" />
          </mxGeometry>
        </mxCell>
        <mxCell id="1gJPdEI6X4SfCQnjHYrI-54" style="edgeStyle=orthogonalEdgeStyle;rounded=0;orthogonalLoop=1;jettySize=auto;html=1;exitX=1;exitY=0.5;exitDx=0;exitDy=0;entryX=1;entryY=0.5;entryDx=0;entryDy=0;" edge="1" parent="WIyWlLk6GJQsqaUBKTNV-1" source="1gJPdEI6X4SfCQnjHYrI-51" target="1gJPdEI6X4SfCQnjHYrI-30">
          <mxGeometry relative="1" as="geometry">
            <Array as="points">
              <mxPoint x="740" y="1160" />
              <mxPoint x="740" y="520" />
            </Array>
          </mxGeometry>
        </mxCell>
        <mxCell id="1gJPdEI6X4SfCQnjHYrI-55" value="Revision" style="edgeLabel;html=1;align=center;verticalAlign=middle;resizable=0;points=[];" vertex="1" connectable="0" parent="1gJPdEI6X4SfCQnjHYrI-54">
          <mxGeometry x="0.2351" y="1" relative="1" as="geometry">
            <mxPoint as="offset" />
          </mxGeometry>
        </mxCell>
      </root>
    </mxGraphModel>
  </diagram>
</mxfile>
